#N canvas 60 60 720 560 12;
#X text 10 10 OSC Audio Visualizer — sends mic audio + uniforms to wgsleng;
#X text 10 25 Start engine first: wgsleng examples/osc --osc-port 9000;
#X obj 443 494 r shader;
#X obj 443 544 else/osc.send 9000;
#X text 10 80 Amplitude;
#X obj 10 155 env~ 1024;
#X obj 10 190 / 100;
#X obj 10 210 clip 0 1;
#X msg 10 230 /u/amplitude \$1;
#X obj 10 250 s shader;
#X text 155 80 Bass ~80Hz;
#X obj 155 120 bp~ 80 3;
#X obj 155 155 env~ 512;
#X obj 155 187 / 100;
#X obj 155 207 clip 0 1;
#X msg 155 227 /u/bass \$1;
#X obj 155 247 s shader;
#X text 305 80 Mid ~500Hz;
#X obj 305 120 bp~ 500 3;
#X obj 305 155 env~ 512;
#X obj 305 187 / 100;
#X obj 305 207 clip 0 1;
#X msg 305 227 /u/mid \$1;
#X obj 305 247 s shader;
#X text 455 80 High ~3kHz;
#X obj 455 120 bp~ 3000 3;
#X obj 455 155 env~ 512;
#X obj 455 187 / 100;
#X obj 455 207 clip 0 1;
#X msg 455 227 /u/high \$1;
#X obj 455 247 s shader;
#X text 605 80 Presence ~10kHz;
#X obj 605 120 bp~ 10000 3;
#X obj 605 155 env~ 512;
#X obj 605 187 / 100;
#X obj 605 207 clip 0 1;
#X msg 605 227 /u/presence \$1;
#X obj 605 247 s shader;
#X text 10 424 Hue 0-1 (base color);
#X floatatom 103 533 8 0 1 0 - - - 0;
#X msg 103 553 /u/hue \$1;
#X obj 103 573 s shader;
#X text 207 424 Speed 0-2 (anim rate);
#X floatatom 187 533 8 0 2 0 - - - 0;
#X msg 187 553 /u/speed \$1;
#X obj 187 573 s shader;
#X obj 156 315 loadbang;
#X msg 139 352 0.35;
#X msg 189 352 0.6;
#X obj 142 382 vsl 17 128 0 1 0 0 empty empty empty 0 -9 0 10 #191919 #e1e1e1 #e1e1e1 0 1;
#X obj 179 382 vsl 17 128 0 2 0 0 empty empty empty 0 -9 0 10 #191919 #e1e1e1 #e1e1e1 0 1;
#X obj 348 553 print shader;
#X obj 262 52 adc~;
#X connect 2 0 3 0;
#X connect 2 0 51 0;
#X connect 5 0 6 0;
#X connect 6 0 7 0;
#X connect 7 0 8 0;
#X connect 8 0 9 0;
#X connect 11 0 12 0;
#X connect 12 0 13 0;
#X connect 13 0 14 0;
#X connect 14 0 15 0;
#X connect 15 0 16 0;
#X connect 18 0 19 0;
#X connect 19 0 20 0;
#X connect 20 0 21 0;
#X connect 21 0 22 0;
#X connect 22 0 23 0;
#X connect 25 0 26 0;
#X connect 26 0 27 0;
#X connect 27 0 28 0;
#X connect 28 0 29 0;
#X connect 29 0 30 0;
#X connect 32 0 33 0;
#X connect 33 0 34 0;
#X connect 34 0 35 0;
#X connect 35 0 36 0;
#X connect 36 0 37 0;
#X connect 39 0 40 0;
#X connect 40 0 41 0;
#X connect 43 0 44 0;
#X connect 44 0 45 0;
#X connect 46 0 47 0;
#X connect 46 0 48 0;
#X connect 47 0 49 0;
#X connect 48 0 50 0;
#X connect 49 0 39 0;
#X connect 50 0 43 0;
#X connect 52 0 11 0;
#X connect 52 0 18 0;
#X connect 52 0 25 0;
#X connect 52 0 32 0;
#X connect 52 0 5 0;
