#N canvas 60 60 720 560 12;
#X text 10 10 OSC Audio Visualizer — sends mic audio + uniforms to wgsleng;
#X text 10 25 Start engine first: wgsleng examples/osc --osc-port 9000;
#X text 10 50 --- Microphone Input ---;
#X obj 200 70 adc~ 1;
#X text 10 100 Amplitude;
#X obj 10 120 env~ 1024;
#X obj 10 140 + 60;
#X obj 10 160 / 60;
#X obj 10 180 clip 0 1;
#X obj 10 200 osc.send /u/amplitude 127.0.0.1 9000;
#X text 155 100 Bass ~80Hz;
#X obj 155 120 bp~ 80 0.7;
#X obj 155 140 env~ 512;
#X obj 155 160 + 60;
#X obj 155 180 / 60;
#X obj 155 200 clip 0 1;
#X obj 155 220 osc.send /u/bass 127.0.0.1 9000;
#X obj 155 240 osc.send /spectrum/0 127.0.0.1 9000;
#X text 305 100 Mid ~500Hz;
#X obj 305 120 bp~ 500 0.7;
#X obj 305 140 env~ 512;
#X obj 305 160 + 60;
#X obj 305 180 / 60;
#X obj 305 200 clip 0 1;
#X obj 305 220 osc.send /u/mid 127.0.0.1 9000;
#X obj 305 240 osc.send /spectrum/1 127.0.0.1 9000;
#X text 455 100 High ~3kHz;
#X obj 455 120 bp~ 3000 0.7;
#X obj 455 140 env~ 512;
#X obj 455 160 + 60;
#X obj 455 180 / 60;
#X obj 455 200 clip 0 1;
#X obj 455 220 osc.send /u/high 127.0.0.1 9000;
#X obj 455 240 osc.send /spectrum/2 127.0.0.1 9000;
#X text 605 100 Presence ~10kHz;
#X obj 605 120 bp~ 10000 0.7;
#X obj 605 140 env~ 512;
#X obj 605 160 + 60;
#X obj 605 180 / 60;
#X obj 605 200 clip 0 1;
#X obj 605 220 osc.send /spectrum/3 127.0.0.1 9000;
#X text 10 280 --- Manual Uniforms (type a value and press Enter) ---;
#X text 10 300 Hue 0-1 (base color);
#X floatatom 10 320 8 0 1 0 - - -;
#X obj 10 340 osc.send /u/hue 127.0.0.1 9000;
#X text 200 300 Speed 0-2 (anim rate);
#X floatatom 200 320 8 0 2 0 - - -;
#X obj 200 340 osc.send /u/speed 127.0.0.1 9000;
#X text 10 380 --- Send initial values on patch open ---;
#X obj 10 400 loadbang;
#X msg 10 420 0.35;
#X msg 110 420 0.6;
#X connect 3 0 5 0;
#X connect 5 0 6 0;
#X connect 6 0 7 0;
#X connect 7 0 8 0;
#X connect 8 0 9 0;
#X connect 3 0 11 0;
#X connect 11 0 12 0;
#X connect 12 0 13 0;
#X connect 13 0 14 0;
#X connect 14 0 15 0;
#X connect 15 0 16 0;
#X connect 15 0 17 0;
#X connect 3 0 19 0;
#X connect 19 0 20 0;
#X connect 20 0 21 0;
#X connect 21 0 22 0;
#X connect 22 0 23 0;
#X connect 23 0 24 0;
#X connect 23 0 25 0;
#X connect 3 0 27 0;
#X connect 27 0 28 0;
#X connect 28 0 29 0;
#X connect 29 0 30 0;
#X connect 30 0 31 0;
#X connect 31 0 32 0;
#X connect 31 0 33 0;
#X connect 3 0 35 0;
#X connect 35 0 36 0;
#X connect 36 0 37 0;
#X connect 37 0 38 0;
#X connect 38 0 39 0;
#X connect 39 0 40 0;
#X connect 43 0 44 0;
#X connect 46 0 47 0;
#X connect 49 0 50 0;
#X connect 49 0 51 0;
#X connect 50 0 44 0;
#X connect 51 0 47 0;
