#N canvas 827 239 734 565 12;
#X obj 858 1150 tgl 19 0 empty empty empty 0 -8 0 10 #dfdfdf #000000 #000000 0 1;
#X obj 858 1176 print status;
#X obj 858 1124 else/osc.send 9000;
#X obj 43 658 hsl 128 15 0 1 0 0 empty empty empty -2 -8 0 10 #191919 #e1e1e1 #e1e1e1 0 1;
#X obj 40 329 tgl 25 0 empty empty empty 0 -10 0 10 #191919 #e1e1e1 #e1e1e1 0 1;
#X msg 40 372 /u/beat \$1;
#X obj 858 1095 r shader;
#X msg 40 688 /u/bass \$1;
#X obj 40 716 s shader;
#X obj 40 401 s shader;
#X obj 50 54 bpm;
#X obj 50 84 metro;
#X obj 50 117 bng 25 250 50 0 empty empty empty 0 -10 0 10 #191919 #e1e1e1 #e1e1e1;
#X obj 50 24 nbx 4 18 0 512 0 1 empty empty empty 0 -8 0 10 #191919 #e1e1e1 #e1e1e1 160 256;
#X obj 84 164 f;
#X obj 40 164 + 1;
#X obj 40 211 s tick;
#X obj 141 143 r tick;
#X obj 141 175 % 16;
#X obj 141 204 s step16;
#X obj 349 44 hradio 26 1 0 16 empty step16 empty 0 -8 0 10 #191919 #e1e1e1 #e1e1e1 0;
#X obj 100 123 s beat;
#X obj 40 293 r beat;
#N canvas 0 22 450 300 trig 0;
#X obj 388 207 sel 0 1 2 3 4 5 6 7 8 9 10 11 12 13 14 15;
#X obj 329 364 tgl 25 1 empty empty empty 0 -10 0 10 #191919 #e1e1e1 #e1e1e1 1 1;
#X obj 355 364 tgl 25 1 empty empty empty 0 -10 0 10 #191919 #e1e1e1 #e1e1e1 1 1;
#X obj 381 364 tgl 25 1 empty empty empty 0 -10 0 10 #191919 #e1e1e1 #e1e1e1 0 1;
#X obj 407 364 tgl 25 1 empty empty empty 0 -10 0 10 #191919 #e1e1e1 #e1e1e1 0 1;
#X obj 432 364 tgl 25 1 empty empty empty 0 -10 0 10 #191919 #e1e1e1 #e1e1e1 1 1;
#X obj 458 364 tgl 25 1 empty empty empty 0 -10 0 10 #191919 #e1e1e1 #e1e1e1 0 1;
#X obj 485 364 tgl 25 1 empty empty empty 0 -10 0 10 #191919 #e1e1e1 #e1e1e1 0 1;
#X obj 510 364 tgl 25 1 empty empty empty 0 -10 0 10 #191919 #e1e1e1 #e1e1e1 1 1;
#X obj 535 364 tgl 25 1 empty empty empty 0 -10 0 10 #191919 #e1e1e1 #e1e1e1 0 1;
#X obj 561 364 tgl 25 1 empty empty empty 0 -10 0 10 #191919 #e1e1e1 #e1e1e1 1 1;
#X obj 587 364 tgl 25 1 empty empty empty 0 -10 0 10 #191919 #e1e1e1 #e1e1e1 0 1;
#X obj 613 364 tgl 25 1 empty empty empty 0 -10 0 10 #191919 #e1e1e1 #e1e1e1 0 1;
#X obj 639 364 tgl 25 1 empty empty empty 0 -10 0 10 #191919 #e1e1e1 #e1e1e1 0 1;
#X obj 665 364 tgl 25 1 empty empty empty 0 -10 0 10 #191919 #e1e1e1 #e1e1e1 1 1;
#X obj 692 364 tgl 25 1 empty empty empty 0 -10 0 10 #191919 #e1e1e1 #e1e1e1 0 1;
#X obj 718 364 tgl 25 1 empty empty empty 0 -10 0 10 #191919 #e1e1e1 #e1e1e1 0 1;
#X obj 388 168 inlet step;
#X obj 241 453 f;
#X obj 283 453 f;
#X obj 328 453 f;
#X obj 370 453 f;
#X obj 412 453 f;
#X obj 454 453 f;
#X obj 499 453 f;
#X obj 541 453 f;
#X obj 584 453 f;
#X obj 626 453 f;
#X obj 671 453 f;
#X obj 713 453 f;
#X obj 755 453 f;
#X obj 797 453 f;
#X obj 842 453 f;
#X obj 884 453 f;
#X obj 506 546 outlet trigger;
#X connect 0 0 18 0;
#X connect 0 1 19 0;
#X connect 0 2 20 0;
#X connect 0 3 21 0;
#X connect 0 4 22 0;
#X connect 0 5 23 0;
#X connect 0 6 24 0;
#X connect 0 7 25 0;
#X connect 0 8 26 0;
#X connect 0 9 27 0;
#X connect 0 10 28 0;
#X connect 0 11 29 0;
#X connect 0 12 30 0;
#X connect 0 13 31 0;
#X connect 0 14 32 0;
#X connect 0 15 33 0;
#X connect 1 0 18 1;
#X connect 2 0 19 1;
#X connect 3 0 20 1;
#X connect 4 0 21 1;
#X connect 5 0 22 1;
#X connect 6 0 23 1;
#X connect 7 0 24 1;
#X connect 8 0 25 1;
#X connect 9 0 26 1;
#X connect 10 0 27 1;
#X connect 11 0 28 1;
#X connect 12 0 29 1;
#X connect 13 0 30 1;
#X connect 14 0 31 1;
#X connect 15 0 32 1;
#X connect 16 0 33 1;
#X connect 17 0 0 0;
#X connect 18 0 34 0;
#X connect 19 0 34 0;
#X connect 20 0 34 0;
#X connect 21 0 34 0;
#X connect 22 0 34 0;
#X connect 23 0 34 0;
#X connect 24 0 34 0;
#X connect 25 0 34 0;
#X connect 26 0 34 0;
#X connect 27 0 34 0;
#X connect 28 0 34 0;
#X connect 29 0 34 0;
#X connect 30 0 34 0;
#X connect 31 0 34 0;
#X connect 32 0 34 0;
#X connect 33 0 34 0;
#X coords 0 0 1 1 423 37 1 326 358;
#X restore 342 85 pd trig;
#X obj 289 124 s kick;
#X obj 277 94 r step16;
#N canvas 0 22 450 300 trig 0;
#X obj 388 207 sel 0 1 2 3 4 5 6 7 8 9 10 11 12 13 14 15;
#X obj 329 364 tgl 25 1 empty empty empty 0 -10 0 10 #191919 #e1e1e1 #e1e1e1 0 1;
#X obj 355 364 tgl 25 1 empty empty empty 0 -10 0 10 #191919 #e1e1e1 #e1e1e1 0 1;
#X obj 381 364 tgl 25 1 empty empty empty 0 -10 0 10 #191919 #e1e1e1 #e1e1e1 1 1;
#X obj 407 364 tgl 25 1 empty empty empty 0 -10 0 10 #191919 #e1e1e1 #e1e1e1 0 1;
#X obj 432 364 tgl 25 1 empty empty empty 0 -10 0 10 #191919 #e1e1e1 #e1e1e1 0 1;
#X obj 458 364 tgl 25 1 empty empty empty 0 -10 0 10 #191919 #e1e1e1 #e1e1e1 0 1;
#X obj 485 364 tgl 25 1 empty empty empty 0 -10 0 10 #191919 #e1e1e1 #e1e1e1 1 1;
#X obj 510 364 tgl 25 1 empty empty empty 0 -10 0 10 #191919 #e1e1e1 #e1e1e1 0 1;
#X obj 535 364 tgl 25 1 empty empty empty 0 -10 0 10 #191919 #e1e1e1 #e1e1e1 0 1;
#X obj 561 364 tgl 25 1 empty empty empty 0 -10 0 10 #191919 #e1e1e1 #e1e1e1 0 1;
#X obj 587 364 tgl 25 1 empty empty empty 0 -10 0 10 #191919 #e1e1e1 #e1e1e1 1 1;
#X obj 613 364 tgl 25 1 empty empty empty 0 -10 0 10 #191919 #e1e1e1 #e1e1e1 0 1;
#X obj 639 364 tgl 25 1 empty empty empty 0 -10 0 10 #191919 #e1e1e1 #e1e1e1 0 1;
#X obj 665 364 tgl 25 1 empty empty empty 0 -10 0 10 #191919 #e1e1e1 #e1e1e1 0 1;
#X obj 692 364 tgl 25 1 empty empty empty 0 -10 0 10 #191919 #e1e1e1 #e1e1e1 1 1;
#X obj 718 364 tgl 25 1 empty empty empty 0 -10 0 10 #191919 #e1e1e1 #e1e1e1 0 1;
#X obj 388 168 inlet step;
#X obj 241 453 f;
#X obj 283 453 f;
#X obj 328 453 f;
#X obj 370 453 f;
#X obj 412 453 f;
#X obj 454 453 f;
#X obj 499 453 f;
#X obj 541 453 f;
#X obj 584 453 f;
#X obj 626 453 f;
#X obj 671 453 f;
#X obj 713 453 f;
#X obj 755 453 f;
#X obj 797 453 f;
#X obj 842 453 f;
#X obj 884 453 f;
#X obj 506 546 outlet trigger;
#X connect 0 0 18 0;
#X connect 0 1 19 0;
#X connect 0 2 20 0;
#X connect 0 3 21 0;
#X connect 0 4 22 0;
#X connect 0 5 23 0;
#X connect 0 6 24 0;
#X connect 0 7 25 0;
#X connect 0 8 26 0;
#X connect 0 9 27 0;
#X connect 0 10 28 0;
#X connect 0 11 29 0;
#X connect 0 12 30 0;
#X connect 0 13 31 0;
#X connect 0 14 32 0;
#X connect 0 15 33 0;
#X connect 1 0 18 1;
#X connect 2 0 19 1;
#X connect 3 0 20 1;
#X connect 4 0 21 1;
#X connect 5 0 22 1;
#X connect 6 0 23 1;
#X connect 7 0 24 1;
#X connect 8 0 25 1;
#X connect 9 0 26 1;
#X connect 10 0 27 1;
#X connect 11 0 28 1;
#X connect 12 0 29 1;
#X connect 13 0 30 1;
#X connect 14 0 31 1;
#X connect 15 0 32 1;
#X connect 16 0 33 1;
#X connect 17 0 0 0;
#X connect 18 0 34 0;
#X connect 19 0 34 0;
#X connect 20 0 34 0;
#X connect 21 0 34 0;
#X connect 22 0 34 0;
#X connect 23 0 34 0;
#X connect 24 0 34 0;
#X connect 25 0 34 0;
#X connect 26 0 34 0;
#X connect 27 0 34 0;
#X connect 28 0 34 0;
#X connect 29 0 34 0;
#X connect 30 0 34 0;
#X connect 31 0 34 0;
#X connect 32 0 34 0;
#X connect 33 0 34 0;
#X coords 0 0 1 1 423 37 1 326 358;
#X restore 342 138 pd trig;
#X obj 277 138 r step16;
#X obj 280 163 s snare;
#N canvas 0 22 450 300 trig 0;
#X obj 388 207 sel 0 1 2 3 4 5 6 7 8 9 10 11 12 13 14 15;
#X obj 329 364 tgl 25 1 empty empty empty 0 -10 0 10 #191919 #e1e1e1 #e1e1e1 1 1;
#X obj 355 364 tgl 25 1 empty empty empty 0 -10 0 10 #191919 #e1e1e1 #e1e1e1 0 1;
#X obj 381 364 tgl 25 1 empty empty empty 0 -10 0 10 #191919 #e1e1e1 #e1e1e1 1 1;
#X obj 407 364 tgl 25 1 empty empty empty 0 -10 0 10 #191919 #e1e1e1 #e1e1e1 0 1;
#X obj 432 364 tgl 25 1 empty empty empty 0 -10 0 10 #191919 #e1e1e1 #e1e1e1 1 1;
#X obj 458 364 tgl 25 1 empty empty empty 0 -10 0 10 #191919 #e1e1e1 #e1e1e1 0 1;
#X obj 485 364 tgl 25 1 empty empty empty 0 -10 0 10 #191919 #e1e1e1 #e1e1e1 1 1;
#X obj 510 364 tgl 25 1 empty empty empty 0 -10 0 10 #191919 #e1e1e1 #e1e1e1 0 1;
#X obj 535 364 tgl 25 1 empty empty empty 0 -10 0 10 #191919 #e1e1e1 #e1e1e1 1 1;
#X obj 561 364 tgl 25 1 empty empty empty 0 -10 0 10 #191919 #e1e1e1 #e1e1e1 0 1;
#X obj 587 364 tgl 25 1 empty empty empty 0 -10 0 10 #191919 #e1e1e1 #e1e1e1 1 1;
#X obj 613 364 tgl 25 1 empty empty empty 0 -10 0 10 #191919 #e1e1e1 #e1e1e1 0 1;
#X obj 639 364 tgl 25 1 empty empty empty 0 -10 0 10 #191919 #e1e1e1 #e1e1e1 1 1;
#X obj 665 364 tgl 25 1 empty empty empty 0 -10 0 10 #191919 #e1e1e1 #e1e1e1 0 1;
#X obj 692 364 tgl 25 1 empty empty empty 0 -10 0 10 #191919 #e1e1e1 #e1e1e1 1 1;
#X obj 718 364 tgl 25 1 empty empty empty 0 -10 0 10 #191919 #e1e1e1 #e1e1e1 0 1;
#X obj 388 168 inlet step;
#X obj 241 453 f;
#X obj 283 453 f;
#X obj 328 453 f;
#X obj 370 453 f;
#X obj 412 453 f;
#X obj 454 453 f;
#X obj 499 453 f;
#X obj 541 453 f;
#X obj 584 453 f;
#X obj 626 453 f;
#X obj 671 453 f;
#X obj 713 453 f;
#X obj 755 453 f;
#X obj 797 453 f;
#X obj 842 453 f;
#X obj 884 453 f;
#X obj 506 546 outlet trigger;
#X connect 0 0 18 0;
#X connect 0 1 19 0;
#X connect 0 2 20 0;
#X connect 0 3 21 0;
#X connect 0 4 22 0;
#X connect 0 5 23 0;
#X connect 0 6 24 0;
#X connect 0 7 25 0;
#X connect 0 8 26 0;
#X connect 0 9 27 0;
#X connect 0 10 28 0;
#X connect 0 11 29 0;
#X connect 0 12 30 0;
#X connect 0 13 31 0;
#X connect 0 14 32 0;
#X connect 0 15 33 0;
#X connect 1 0 18 1;
#X connect 2 0 19 1;
#X connect 3 0 20 1;
#X connect 4 0 21 1;
#X connect 5 0 22 1;
#X connect 6 0 23 1;
#X connect 7 0 24 1;
#X connect 8 0 25 1;
#X connect 9 0 26 1;
#X connect 10 0 27 1;
#X connect 11 0 28 1;
#X connect 12 0 29 1;
#X connect 13 0 30 1;
#X connect 14 0 31 1;
#X connect 15 0 32 1;
#X connect 16 0 33 1;
#X connect 17 0 0 0;
#X connect 18 0 34 0;
#X connect 19 0 34 0;
#X connect 20 0 34 0;
#X connect 21 0 34 0;
#X connect 22 0 34 0;
#X connect 23 0 34 0;
#X connect 24 0 34 0;
#X connect 25 0 34 0;
#X connect 26 0 34 0;
#X connect 27 0 34 0;
#X connect 28 0 34 0;
#X connect 29 0 34 0;
#X connect 30 0 34 0;
#X connect 31 0 34 0;
#X connect 32 0 34 0;
#X connect 33 0 34 0;
#X coords 0 0 1 1 423 37 1 326 358;
#X restore 344 186 pd trig;
#X obj 277 186 r step16;
#X obj 291 212 s chh;
#X obj 214 118 bng 25 250 50 0 empty empty empty 0 -10 0 10 #191919 #e1e1e1 #e1e1e1;
#X msg 247 118 1;
#X obj 214 157 bng 25 250 50 0 empty empty empty 0 -10 0 10 #191919 #e1e1e1 #e1e1e1;
#X msg 247 157 1;
#X obj 214 192 bng 25 250 50 0 empty empty empty 0 -10 0 10 #191919 #e1e1e1 #e1e1e1;
#X msg 247 192 1;
#X obj 720 1043 drive.m~;
#A saved 0.104 -0.544;
#A saved;
#A saved;
#X obj 720 1215 dac~;
#X obj 685 865 sfont.m~;
#A saved sf/GeneralUser_GS.sf3 263;
#X obj 703 765 r kick;
#X obj 771 765 r snare;
#X obj 841 765 r chh;
#X obj 841 795 sel 1;
#X obj 771 795 sel 1;
#X obj 697 795 sel 1;
#X msg 767 822 38 127;
#X msg 693 822 36 127;
#X msg 837 822 42 127;
#X obj 348 490 plaits.m~;
#A saved -18.624 0.936 0.22 0.732 4 0.748 0.556 0.544 0.832 0.728 -0.656 1 0 1;
#A saved;
#A saved;
#A saved;
#A saved;
#A saved;
#A saved;
#A saved;
#A saved;
#A saved;
#A saved;
#X obj 330 232 seq8.m~;
#A saved 60 4 60 51.936 64.608 36.576 24.288 45.408 12 59.616 34.272 1 1 1 1 1 1 1 1;
#A saved;
#A saved;
#A saved;
#A saved;
#A saved;
#A saved;
#A saved;
#A saved;
#X obj 154 250 r beat;
#X obj 209 1215 dac~;
#X obj 64 546 snapshot~;
#X obj 64 583 / 127;
#X obj 944 897 s shader;
#X obj 1145 898 s shader;
#X msg 1145 871 /vid/britney.mp4/position 0.01;
#X obj 944 811 r kick;
#X msg 944 870 /vid/britney.mp4/position 0.5;
#X obj 944 841 sel 1;
#X obj 1145 844 sel 1;
#X obj 1145 820 r snare;
#X connect 0 0 1 0;
#X connect 2 0 0 0;
#X connect 3 0 7 0;
#X connect 4 0 5 0;
#X connect 5 0 9 0;
#X connect 6 0 2 0;
#X connect 7 0 8 0;
#X connect 10 0 11 0;
#X connect 10 0 11 1;
#X connect 11 0 12 0;
#X connect 12 0 14 0;
#X connect 12 0 21 0;
#X connect 13 0 10 0;
#X connect 14 0 15 0;
#X connect 15 0 14 1;
#X connect 15 0 16 0;
#X connect 17 0 18 0;
#X connect 18 0 19 0;
#X connect 22 0 4 0;
#X connect 23 0 24 0;
#X connect 25 0 23 0;
#X connect 26 0 28 0;
#X connect 27 0 26 0;
#X connect 29 0 31 0;
#X connect 30 0 29 0;
#X connect 32 0 33 0;
#X connect 33 0 24 0;
#X connect 34 0 35 0;
#X connect 35 0 28 0;
#X connect 36 0 37 0;
#X connect 37 0 31 0;
#X connect 38 0 39 0;
#X connect 38 0 39 1;
#X connect 40 0 38 0;
#X connect 40 1 38 0;
#X connect 41 0 46 0;
#X connect 42 0 45 0;
#X connect 43 0 44 0;
#X connect 44 0 49 0;
#X connect 45 0 47 0;
#X connect 46 0 48 0;
#X connect 47 0 40 0;
#X connect 48 0 40 0;
#X connect 49 0 40 0;
#X connect 50 0 53 0;
#X connect 50 1 53 1;
#X connect 51 0 54 0;
#X connect 51 0 50 0;
#X connect 51 1 50 1;
#X connect 52 0 54 0;
#X connect 52 0 51 0;
#X connect 54 0 55 0;
#X connect 55 0 3 0;
#X connect 58 0 57 0;
#X connect 59 0 61 0;
#X connect 60 0 56 0;
#X connect 61 0 60 0;
#X connect 62 0 58 0;
#X connect 63 0 62 0;
#X coords 0 0 1 1 453 698 1 323 37;
